<svg width="240" height="240" viewBox="0 0 240 240" fill="none" xmlns="http://www.w3.org/2000/svg">
<g filter="url(#filter0_i_405_2737)">
<path d="M120 220L215.106 150.902L178.779 39.0983H61.2215L24.8943 150.902L120 220Z" fill="url(#paint0_linear_405_2737)"/>
</g>
<path d="M213.342 150.329L177.688 40.5986H62.3115L26.6572 150.329L120 218.146L213.342 150.329Z" stroke="url(#paint1_linear_405_2737)" stroke-width="3"/>
<path d="M89.4769 141.498C89.4292 141.657 89.4133 141.864 89.3178 141.96C86.7562 144.633 84.3377 147.417 82.2534 150.472C81.9511 150.917 81.5852 151.363 81.1397 151.681C80.901 151.856 80.4555 151.745 80.1055 151.761C80.1373 151.442 80.0418 151.045 80.2009 150.838C81.3465 149.294 82.4603 147.719 83.7331 146.271C84.9423 144.887 86.2788 143.63 87.6313 142.373C88.0927 141.944 88.745 141.705 89.3019 141.387C89.3655 141.434 89.4133 141.466 89.4769 141.498Z" fill="#C9C9C9"/>
<path d="M89.4769 141.498C89.4292 141.657 89.4133 141.864 89.3178 141.96C86.7562 144.633 84.3377 147.417 82.2534 150.472C81.9511 150.917 81.5852 151.363 81.1397 151.681C80.901 151.856 80.4555 151.745 80.1055 151.761C80.1373 151.442 80.0418 151.045 80.2009 150.838C81.3465 149.294 82.4603 147.719 83.7331 146.271C84.9423 144.887 86.2788 143.63 87.6313 142.373C88.0927 141.944 88.745 141.705 89.3019 141.387C89.3655 141.434 89.4133 141.466 89.4769 141.498Z" fill="url(#paint2_linear_405_2737)"/>
<path d="M127.885 121.993C127.885 121.42 127.662 120.72 127.296 120.274C126.803 119.67 126.294 119.065 125.784 118.476C124.623 120.274 123.716 122.184 122.936 124.172C121.552 127.768 119.85 131.205 117.622 134.339C117.447 134.578 117.304 134.801 117.161 135.039C118.227 134.737 119.277 134.403 120.327 134.053C122.379 133.353 124.4 132.573 126.166 131.253C127.105 130.553 127.741 129.693 127.757 128.468C127.805 126.32 127.901 124.156 127.885 121.993ZM124.066 116.599C121.695 114.133 119.118 111.873 116.477 109.694C115.299 108.723 114.042 107.784 112.69 107.116C111.306 106.432 109.762 106.066 108.251 105.668C106.851 105.286 105.435 105.032 104.018 104.714C104.003 104.682 104.003 104.634 103.987 104.602C105.944 104.475 107.901 104.348 109.858 104.22C109.715 104.109 109.54 103.982 109.365 103.838C105.832 101.229 102.555 98.3492 100.343 94.4829C99.5635 93.0987 99.0861 91.5553 98.4338 89.9961C98.3224 90.012 98.052 90.0438 97.8133 90.1234C96.7155 90.5211 95.6176 90.903 94.5516 91.3485C91.5763 92.6214 89.0306 94.4511 87.0417 97.0127C82.6026 102.709 83.43 109.869 88.3782 114.244C91.0512 116.615 93.8834 118.795 96.7155 120.99C98.1315 122.088 99.6908 122.995 101.186 123.997C101.568 123.663 101.855 123.393 102.141 123.138C105.657 119.861 109.555 117.251 114.297 116.122C115.856 115.756 117.431 115.612 119.054 115.947C114.01 117.092 109.603 119.463 105.594 122.868C107.042 122.724 108.33 122.518 109.635 122.502C110.987 122.502 112.308 122.788 113.485 123.6C112.053 123.647 110.669 123.615 109.285 123.727C105.912 124.029 102.809 125.302 99.7544 126.654C94.663 128.914 89.6034 131.253 84.7824 134.085C84.496 134.26 84.13 134.276 83.7959 134.371C83.7641 134.292 83.7164 134.212 83.6846 134.148C84.5756 132.335 86.7394 132.112 88.1555 130.807C87.1531 130.632 86.2621 130.553 85.4029 130.33C84.5119 130.091 83.6527 129.725 82.7777 129.439C82.3958 129.312 82.0299 129.184 81.6321 129.105C79.6751 128.723 77.8453 129.582 77.0498 131.412C76.6679 132.287 76.3974 133.289 76.3974 134.244C76.3974 136.646 75.6974 138.81 74.5359 140.895C73.6926 142.422 72.8971 143.981 72.2129 145.588C71.9584 146.225 71.9583 147.052 72.1015 147.736C72.197 148.166 72.1334 148.373 71.9106 148.691C71.481 149.327 71.0673 149.964 70.765 150.664C70.6696 150.902 70.8446 151.412 71.0514 151.602C71.2106 151.73 71.672 151.571 71.9583 151.443C72.2288 151.332 72.4675 151.093 72.7221 150.918C72.8175 151.173 72.7698 151.284 72.738 151.396C72.6584 151.73 72.5789 152.048 72.5152 152.382C72.9607 152.446 73.4221 152.637 73.8199 152.541C74.2018 152.462 74.5359 152.096 74.8382 151.809C75.2519 151.412 75.6178 150.966 76.0156 150.536C75.8406 150.95 75.5383 151.252 75.3314 151.618C75.1723 151.937 75.1405 152.318 75.045 152.684C75.5223 152.716 75.9838 152.78 76.4611 152.78C76.6043 152.78 76.7475 152.557 76.8748 152.414C77.3998 151.777 78.0044 151.189 78.4022 150.489C79.9455 147.752 82.0935 145.509 84.3369 143.393C85.4984 142.295 86.819 141.245 88.2509 140.624C91.0035 139.415 93.9947 139.033 96.97 138.635C100.534 138.142 104.098 137.744 107.646 137.156C109.81 136.805 111.942 136.376 114.074 135.867C114.313 134.944 114.758 134.085 115.363 133.241C117.606 130.107 119.293 126.67 120.677 123.075C121.584 120.783 122.65 118.604 124.066 116.599Z" fill="#C9C9C9"/>
<path d="M127.885 121.993C127.885 121.42 127.662 120.72 127.296 120.274C126.803 119.67 126.294 119.065 125.784 118.476C124.623 120.274 123.716 122.184 122.936 124.172C121.552 127.768 119.85 131.205 117.622 134.339C117.447 134.578 117.304 134.801 117.161 135.039C118.227 134.737 119.277 134.403 120.327 134.053C122.379 133.353 124.4 132.573 126.166 131.253C127.105 130.553 127.741 129.693 127.757 128.468C127.805 126.32 127.901 124.156 127.885 121.993ZM124.066 116.599C121.695 114.133 119.118 111.873 116.477 109.694C115.299 108.723 114.042 107.784 112.69 107.116C111.306 106.432 109.762 106.066 108.251 105.668C106.851 105.286 105.435 105.032 104.018 104.714C104.003 104.682 104.003 104.634 103.987 104.602C105.944 104.475 107.901 104.348 109.858 104.22C109.715 104.109 109.54 103.982 109.365 103.838C105.832 101.229 102.555 98.3492 100.343 94.4829C99.5635 93.0987 99.0861 91.5553 98.4338 89.9961C98.3224 90.012 98.052 90.0438 97.8133 90.1234C96.7155 90.5211 95.6176 90.903 94.5516 91.3485C91.5763 92.6214 89.0306 94.4511 87.0417 97.0127C82.6026 102.709 83.43 109.869 88.3782 114.244C91.0512 116.615 93.8834 118.795 96.7155 120.99C98.1315 122.088 99.6908 122.995 101.186 123.997C101.568 123.663 101.855 123.393 102.141 123.138C105.657 119.861 109.555 117.251 114.297 116.122C115.856 115.756 117.431 115.612 119.054 115.947C114.01 117.092 109.603 119.463 105.594 122.868C107.042 122.724 108.33 122.518 109.635 122.502C110.987 122.502 112.308 122.788 113.485 123.6C112.053 123.647 110.669 123.615 109.285 123.727C105.912 124.029 102.809 125.302 99.7544 126.654C94.663 128.914 89.6034 131.253 84.7824 134.085C84.496 134.26 84.13 134.276 83.7959 134.371C83.7641 134.292 83.7164 134.212 83.6846 134.148C84.5756 132.335 86.7394 132.112 88.1555 130.807C87.1531 130.632 86.2621 130.553 85.4029 130.33C84.5119 130.091 83.6527 129.725 82.7777 129.439C82.3958 129.312 82.0299 129.184 81.6321 129.105C79.6751 128.723 77.8453 129.582 77.0498 131.412C76.6679 132.287 76.3974 133.289 76.3974 134.244C76.3974 136.646 75.6974 138.81 74.5359 140.895C73.6926 142.422 72.8971 143.981 72.2129 145.588C71.9584 146.225 71.9583 147.052 72.1015 147.736C72.197 148.166 72.1334 148.373 71.9106 148.691C71.481 149.327 71.0673 149.964 70.765 150.664C70.6696 150.902 70.8446 151.412 71.0514 151.602C71.2106 151.73 71.672 151.571 71.9583 151.443C72.2288 151.332 72.4675 151.093 72.7221 150.918C72.8175 151.173 72.7698 151.284 72.738 151.396C72.6584 151.73 72.5789 152.048 72.5152 152.382C72.9607 152.446 73.4221 152.637 73.8199 152.541C74.2018 152.462 74.5359 152.096 74.8382 151.809C75.2519 151.412 75.6178 150.966 76.0156 150.536C75.8406 150.95 75.5383 151.252 75.3314 151.618C75.1723 151.937 75.1405 152.318 75.045 152.684C75.5223 152.716 75.9838 152.78 76.4611 152.78C76.6043 152.78 76.7475 152.557 76.8748 152.414C77.3998 151.777 78.0044 151.189 78.4022 150.489C79.9455 147.752 82.0935 145.509 84.3369 143.393C85.4984 142.295 86.819 141.245 88.2509 140.624C91.0035 139.415 93.9947 139.033 96.97 138.635C100.534 138.142 104.098 137.744 107.646 137.156C109.81 136.805 111.942 136.376 114.074 135.867C114.313 134.944 114.758 134.085 115.363 133.241C117.606 130.107 119.293 126.67 120.677 123.075C121.584 120.783 122.65 118.604 124.066 116.599Z" fill="url(#paint3_linear_405_2737)"/>
<path d="M177.129 111.778C176.238 107.976 173.629 105.175 170.304 103.966C168.537 103.33 166.564 103.155 164.544 103.505C162.316 103.903 160.407 104.873 158.609 106.194C158.323 106.401 157.957 106.703 157.639 106.687C156.318 106.592 154.997 106.337 154.011 105.382C153.947 105.319 153.884 105.255 153.82 105.191C153.247 104.571 152.722 103.903 152.229 103.203C150.542 100.816 148.633 98.6362 146.342 96.7746C143.383 94.388 139.659 91.9855 135.729 90.1398C135.729 90.1398 135.729 90.1398 135.714 90.1398C131.784 88.2942 127.647 87.0213 123.892 86.8622C120.01 86.7031 116.127 86.8463 112.277 87.3714C108.824 87.8487 105.372 88.3737 101.919 88.9147C100.996 89.0579 100.821 89.4079 101.044 90.3148C101.108 90.5694 101.203 90.824 101.315 91.0626C102.54 93.8311 104.29 96.2336 106.486 98.3179C108.443 100.195 110.177 101.468 111.991 102.502C114.425 103.871 117.034 104.778 120.614 105.987C121.346 106.226 122.094 106.464 122.826 106.751C123.351 106.957 123.86 107.18 124.353 107.451C125.053 107.833 125.722 108.31 126.326 108.946C127.679 106.782 129.747 105.685 132.07 105.16C132.643 105.032 133.2 104.953 133.772 104.905C135.554 104.762 137.336 104.985 139.134 105.621C138.052 105.748 137.082 105.828 136.127 105.987C131.115 106.862 127.472 109.774 126.883 115.358C126.819 116.058 126.867 116.902 126.501 117.411C126.247 117.761 125.992 118.127 125.753 118.493C124.592 120.291 123.685 122.2 122.905 124.189C121.521 127.785 119.819 131.221 117.591 134.356C117.416 134.594 117.273 134.817 117.13 135.056C116.366 136.345 115.968 137.697 116.112 139.224C116.175 139.893 116.382 140.545 116.509 141.213C116.477 141.213 116.462 141.229 116.43 141.229C116.302 140.879 116.175 140.513 116 140.02C115.873 140.338 115.793 140.497 115.761 140.656C114.791 144.395 114.234 148.214 113.979 152.08C113.629 157.22 113.47 162.343 114.186 167.466C114.329 168.5 114.552 169.503 115.22 170.219C115.491 170.521 115.841 170.76 116.302 170.95C119.857 172.354 124.621 172.486 127.798 172.78C128.148 172.812 128.514 172.494 128.879 172.319C128.657 172.016 128.482 171.619 128.179 171.444C124.876 169.592 134.859 172.162 133.189 168.9C131.292 168.263 126.336 166.145 124.385 165.7C119.476 164.601 121.149 166.319 121.394 161.42C121.569 158.063 122.253 154.817 123.255 151.635C124.592 147.371 125.881 143.107 127.233 138.843C127.376 138.397 127.663 137.952 127.997 137.633C130.383 135.342 132.834 133.115 135.204 130.808C135.936 130.092 136.636 129.28 137.098 128.389C137.336 127.928 137.543 127.657 138.005 127.466C140.98 126.241 143.287 124.237 144.91 121.452C145.212 120.927 145.483 120.402 145.737 119.861C146.66 117.888 147.249 115.772 147.44 113.417C148.553 115.708 148.331 117.809 147.615 119.925C147.503 120.243 147.392 120.561 147.265 120.879C147.472 120.943 147.551 120.975 147.615 120.975C149.381 121.023 151.147 121.086 152.913 121.134C153.311 121.15 153.709 121.15 154.122 121.166C154.759 121.182 155.109 121.341 155.141 122.12C155.22 123.6 155.459 125.064 156.207 126.384C156.222 126.416 156.238 126.432 156.254 126.464C156.891 127.53 157.814 127.769 159.007 127.482C160.264 127.18 161.584 127.132 162.889 126.989C163.032 126.973 163.191 127.069 163.335 127.132C164.671 127.737 165.562 127.721 166.453 126.591C167.296 125.525 168.346 125.08 169.572 124.809C170.033 124.714 170.479 124.507 170.924 124.332C172.658 123.648 174.281 122.709 175.395 121.213C177.511 118.381 177.925 115.183 177.129 111.778Z" fill="#C9C9C9"/>
<path d="M177.129 111.778C176.238 107.976 173.629 105.175 170.304 103.966C168.537 103.33 166.564 103.155 164.544 103.505C162.316 103.903 160.407 104.873 158.609 106.194C158.323 106.401 157.957 106.703 157.639 106.687C156.318 106.592 154.997 106.337 154.011 105.382C153.947 105.319 153.884 105.255 153.82 105.191C153.247 104.571 152.722 103.903 152.229 103.203C150.542 100.816 148.633 98.6362 146.342 96.7746C143.383 94.388 139.659 91.9855 135.729 90.1398C135.729 90.1398 135.729 90.1398 135.714 90.1398C131.784 88.2942 127.647 87.0213 123.892 86.8622C120.01 86.7031 116.127 86.8463 112.277 87.3714C108.824 87.8487 105.372 88.3737 101.919 88.9147C100.996 89.0579 100.821 89.4079 101.044 90.3148C101.108 90.5694 101.203 90.824 101.315 91.0626C102.54 93.8311 104.29 96.2336 106.486 98.3179C108.443 100.195 110.177 101.468 111.991 102.502C114.425 103.871 117.034 104.778 120.614 105.987C121.346 106.226 122.094 106.464 122.826 106.751C123.351 106.957 123.86 107.18 124.353 107.451C125.053 107.833 125.722 108.31 126.326 108.946C127.679 106.782 129.747 105.685 132.07 105.16C132.643 105.032 133.2 104.953 133.772 104.905C135.554 104.762 137.336 104.985 139.134 105.621C138.052 105.748 137.082 105.828 136.127 105.987C131.115 106.862 127.472 109.774 126.883 115.358C126.819 116.058 126.867 116.902 126.501 117.411C126.247 117.761 125.992 118.127 125.753 118.493C124.592 120.291 123.685 122.2 122.905 124.189C121.521 127.785 119.819 131.221 117.591 134.356C117.416 134.594 117.273 134.817 117.13 135.056C116.366 136.345 115.968 137.697 116.112 139.224C116.175 139.893 116.382 140.545 116.509 141.213C116.477 141.213 116.462 141.229 116.43 141.229C116.302 140.879 116.175 140.513 116 140.02C115.873 140.338 115.793 140.497 115.761 140.656C114.791 144.395 114.234 148.214 113.979 152.08C113.629 157.22 113.47 162.343 114.186 167.466C114.329 168.5 114.552 169.503 115.22 170.219C115.491 170.521 115.841 170.76 116.302 170.95C119.857 172.354 124.621 172.486 127.798 172.78C128.148 172.812 128.514 172.494 128.879 172.319C128.657 172.016 128.482 171.619 128.179 171.444C124.876 169.592 134.859 172.162 133.189 168.9C131.292 168.263 126.336 166.145 124.385 165.7C119.476 164.601 121.149 166.319 121.394 161.42C121.569 158.063 122.253 154.817 123.255 151.635C124.592 147.371 125.881 143.107 127.233 138.843C127.376 138.397 127.663 137.952 127.997 137.633C130.383 135.342 132.834 133.115 135.204 130.808C135.936 130.092 136.636 129.28 137.098 128.389C137.336 127.928 137.543 127.657 138.005 127.466C140.98 126.241 143.287 124.237 144.91 121.452C145.212 120.927 145.483 120.402 145.737 119.861C146.66 117.888 147.249 115.772 147.44 113.417C148.553 115.708 148.331 117.809 147.615 119.925C147.503 120.243 147.392 120.561 147.265 120.879C147.472 120.943 147.551 120.975 147.615 120.975C149.381 121.023 151.147 121.086 152.913 121.134C153.311 121.15 153.709 121.15 154.122 121.166C154.759 121.182 155.109 121.341 155.141 122.12C155.22 123.6 155.459 125.064 156.207 126.384C156.222 126.416 156.238 126.432 156.254 126.464C156.891 127.53 157.814 127.769 159.007 127.482C160.264 127.18 161.584 127.132 162.889 126.989C163.032 126.973 163.191 127.069 163.335 127.132C164.671 127.737 165.562 127.721 166.453 126.591C167.296 125.525 168.346 125.08 169.572 124.809C170.033 124.714 170.479 124.507 170.924 124.332C172.658 123.648 174.281 122.709 175.395 121.213C177.511 118.381 177.925 115.183 177.129 111.778Z" fill="url(#paint4_linear_405_2737)"/>
<path d="M133.405 138.491C132.212 141.26 131.098 144.044 129.905 146.813C128.568 149.947 127.104 153.034 126.325 156.375C125.951 157.975 126.248 159.386 125.8 160.957C128.971 161.421 135.489 164.444 128.024 163.239C127.977 163.229 133.401 164.916 132.231 166.866C132.231 166.866 127.43 165.04 126.399 164.79C125.778 164.647 124.734 164.283 124.129 164.092C123.031 163.758 122.888 163.678 122.968 162.485C123.079 160.798 123.206 159.112 123.493 157.441C124.53 151.441 127.358 145.635 129.068 139.781C131.401 136.157 138.404 129.77 141.663 127.449C139.572 131.66 135.223 134.213 133.405 138.491Z" fill="#C9C9C9"/>
<path d="M133.405 138.491C132.212 141.26 131.098 144.044 129.905 146.813C128.568 149.947 127.104 153.034 126.325 156.375C125.951 157.975 126.248 159.386 125.8 160.957C128.971 161.421 135.489 164.444 128.024 163.239C127.977 163.229 133.401 164.916 132.231 166.866C132.231 166.866 127.43 165.04 126.399 164.79C125.778 164.647 124.734 164.283 124.129 164.092C123.031 163.758 122.888 163.678 122.968 162.485C123.079 160.798 123.206 159.112 123.493 157.441C124.53 151.441 127.358 145.635 129.068 139.781C131.401 136.157 138.404 129.77 141.663 127.449C139.572 131.66 135.223 134.213 133.405 138.491Z" fill="url(#paint5_linear_405_2737)"/>
<g filter="url(#filter1_i_405_2737)">
<path d="M213.695 150.443L177.907 40.2979H62.0928L26.3037 150.443L120 218.518L213.695 150.443Z" stroke="white" stroke-opacity="0.37" stroke-width="2.4"/>
</g>
<defs>
<filter id="filter0_i_405_2737" x="24.8945" y="39.0977" width="190.211" height="195.044" filterUnits="userSpaceOnUse" color-interpolation-filters="sRGB">
<feFlood flood-opacity="0" result="BackgroundImageFix"/>
<feBlend mode="normal" in="SourceGraphic" in2="BackgroundImageFix" result="shape"/>
<feColorMatrix in="SourceAlpha" type="matrix" values="0 0 0 0 0 0 0 0 0 0 0 0 0 0 0 0 0 0 127 0" result="hardAlpha"/>
<feOffset dy="14.894"/>
<feGaussianBlur stdDeviation="7.071"/>
<feComposite in2="hardAlpha" operator="arithmetic" k2="-1" k3="1"/>
<feColorMatrix type="matrix" values="0 0 0 0 0 0 0 0 0 0 0 0 0 0 0 0 0 0 0.56 0"/>
<feBlend mode="normal" in2="shape" result="effect1_innerShadow_405_2737"/>
</filter>
<filter id="filter1_i_405_2737" x="24.8945" y="39.0977" width="190.211" height="190.596" filterUnits="userSpaceOnUse" color-interpolation-filters="sRGB">
<feFlood flood-opacity="0" result="BackgroundImageFix"/>
<feBlend mode="normal" in="SourceGraphic" in2="BackgroundImageFix" result="shape"/>
<feColorMatrix in="SourceAlpha" type="matrix" values="0 0 0 0 0 0 0 0 0 0 0 0 0 0 0 0 0 0 127 0" result="hardAlpha"/>
<feOffset dy="9.694"/>
<feGaussianBlur stdDeviation="5.371"/>
<feComposite in2="hardAlpha" operator="arithmetic" k2="-1" k3="1"/>
<feColorMatrix type="matrix" values="0 0 0 0 0 0 0 0 0 0 0 0 0 0 0 0 0 0 0.26 0"/>
<feBlend mode="normal" in2="shape" result="effect1_innerShadow_405_2737"/>
</filter>
<linearGradient id="paint0_linear_405_2737" x1="120" y1="20" x2="120" y2="220" gradientUnits="userSpaceOnUse">
<stop stop-color="#05033A"/>
<stop offset="1"/>
</linearGradient>
<linearGradient id="paint1_linear_405_2737" x1="100.466" y1="238.3" x2="100.466" y2="-0.400004" gradientUnits="userSpaceOnUse">
<stop stop-color="#B2B2B2"/>
<stop offset="0.2279" stop-color="#5B5B5B"/>
<stop offset="0.414" stop-color="#4D4D4D"/>
<stop offset="0.586" stop-color="#EEEEEE"/>
<stop offset="0.7721" stop-color="#ACACAC"/>
<stop offset="1" stop-color="#959595"/>
</linearGradient>
<linearGradient id="paint2_linear_405_2737" x1="83.4805" y1="152.058" x2="83.2511" y2="138.204" gradientUnits="userSpaceOnUse">
<stop stop-color="#B2B2B2"/>
<stop offset="0.500918" stop-color="#EEEEEE"/>
<stop offset="0.7721" stop-color="#ACACAC"/>
<stop offset="1" stop-color="#959595"/>
</linearGradient>
<linearGradient id="paint3_linear_405_2737" x1="91.3196" y1="154.452" x2="89.9471" y2="70.7683" gradientUnits="userSpaceOnUse">
<stop stop-color="#B2B2B2"/>
<stop offset="0.500918" stop-color="#EEEEEE"/>
<stop offset="0.7721" stop-color="#ACACAC"/>
<stop offset="1" stop-color="#959595"/>
</linearGradient>
<linearGradient id="paint4_linear_405_2737" x1="128.525" y1="175.072" x2="126.604" y2="60.4699" gradientUnits="userSpaceOnUse">
<stop stop-color="#B2B2B2"/>
<stop offset="0.500918" stop-color="#EEEEEE"/>
<stop offset="0.7721" stop-color="#ACACAC"/>
<stop offset="1" stop-color="#959595"/>
</linearGradient>
<linearGradient id="paint5_linear_405_2737" x1="129.689" y1="167.916" x2="128.038" y2="115.415" gradientUnits="userSpaceOnUse">
<stop stop-color="#B2B2B2"/>
<stop offset="0.500918" stop-color="#EEEEEE"/>
<stop offset="0.7721" stop-color="#ACACAC"/>
<stop offset="1" stop-color="#959595"/>
</linearGradient>
</defs>
</svg>
